<?xml version="1.0" encoding="UTF-8"?>
<svg xmlns="http://www.w3.org/2000/svg" xmlns:xlink="http://www.w3.org/1999/xlink" viewBox="0 0 48 48" width="48px" height="48px">
<g id="surface38311366">
<path style=" stroke:none;fill-rule:nonzero;fill:rgb(100%,100%,100%);fill-opacity:1;" d="M 24 4 C 12.953125 4 4 12.953125 4 24 C 4 34.789062 12.550781 43.558594 23.242188 43.960938 L 23.242188 30.078125 L 18.554688 30.078125 L 18.554688 24.628906 L 23.242188 24.628906 L 23.242188 20.617188 C 23.242188 15.96875 26.085938 13.4375 30.230469 13.4375 C 31.628906 13.433594 33.027344 13.503906 34.414062 13.644531 L 34.414062 18.507812 L 31.558594 18.507812 C 29.300781 18.507812 28.859375 19.574219 28.859375 21.148438 L 28.859375 24.621094 L 34.261719 24.621094 L 33.558594 30.070312 L 28.828125 30.070312 L 28.828125 43.386719 C 37.535156 41.226562 44 33.378906 44 24 C 44 12.953125 35.046875 4 24 4 Z M 24 4 "/>
</g>
</svg>
