<?xml version="1.0" encoding="UTF-8"?>
<svg xmlns="http://www.w3.org/2000/svg" xmlns:xlink="http://www.w3.org/1999/xlink" viewBox="0 0 48 48" width="48px" height="48px">
<g id="surface39468895">
<path style=" stroke:none;fill-rule:nonzero;fill:rgb(100%,100%,100%);fill-opacity:1;" d="M 38 6 L 10 6 C 7.789062 6 6 7.789062 6 10 L 6 38 C 6 40.210938 7.789062 42 10 42 L 38 42 C 40.210938 42 42 40.210938 42 38 L 42 10 C 42 7.789062 40.210938 6 38 6 Z M 18 34 L 12.953125 34 L 12.953125 20 L 18 20 Z M 15.386719 17.433594 C 13.847656 17.433594 12.816406 16.40625 12.816406 15.035156 C 12.816406 13.660156 13.84375 12.632812 15.558594 12.632812 C 17.101562 12.632812 18.128906 13.660156 18.128906 15.035156 C 18.128906 16.40625 17.101562 17.433594 15.386719 17.433594 Z M 36 34 L 31.117188 34 L 31.117188 26.347656 C 31.117188 24.230469 29.8125 23.742188 29.324219 23.742188 C 28.839844 23.742188 27.210938 24.070312 27.210938 26.347656 C 27.210938 26.675781 27.210938 34 27.210938 34 L 22.164062 34 L 22.164062 20 L 27.210938 20 L 27.210938 21.953125 C 27.859375 20.8125 29.160156 20 31.605469 20 C 34.046875 20 36 21.953125 36 26.347656 Z M 36 34 "/>
</g>
</svg>
